<svg width="67" height="65" viewBox="0 0 67 65" fill="none" xmlns="http://www.w3.org/2000/svg">
    <g clip-path="url(#clip0_232_66264)">
        <path d="M64.1321 21.0438L63.7967 20.7968L37.563 1.57114C36.4301 0.715752 35.0208 0.208008 33.4981 0.208008C32.0933 0.208008 30.7791 0.637989 29.6961 1.37902C29.6009 1.44306 29.5103 1.5071 29.4196 1.57572L3.19952 20.7968L2.86418 21.0438C1.24638 22.2972 0.204102 24.2687 0.204102 26.4872C0.204102 27.155 0.299266 27.8 0.476 28.4084L0.607418 28.8155C0.607418 28.8247 0.61195 28.8384 0.616481 28.8475L10.6178 59.9114C10.636 59.9755 10.6541 60.0349 10.6767 60.0944C11.3927 62.2717 13.1601 63.9642 15.3715 64.5589V35.1829C15.3715 25.0738 23.4877 16.8858 33.4981 16.8858C43.5085 16.8858 51.6247 25.0738 51.6247 35.1829C51.6247 42.8585 46.939 49.4318 40.2956 52.1443V44.3314C43.0463 42.2456 44.8272 38.9247 44.8272 35.1829C44.8272 28.8658 39.7518 23.7472 33.4981 23.7472C27.2399 23.7472 22.169 28.8658 22.169 35.1829V64.7876H49.8664C52.88 64.7876 55.4358 62.8115 56.3286 60.0669C56.3422 60.0212 56.3558 59.9754 56.3739 59.9251L66.3798 28.8475L66.5248 28.3947C66.697 27.7909 66.7921 27.1505 66.7921 26.4872C66.7921 24.2687 65.7499 22.2972 64.1321 21.0438ZM36.8969 55.7671C36.8969 57.6609 35.3742 59.1978 33.4981 59.1978H30.0994V45.475C30.0994 43.5767 31.6175 42.0443 33.4981 42.0443H36.8969V55.7671ZM36.8969 35.1829C36.8969 37.0766 35.3742 38.6136 33.4981 38.6136H30.0994V35.1829C30.0994 33.2846 31.6175 31.7522 33.4981 31.7522H36.8969V35.1829Z" fill="url(#paint0_linear_232_66264)"/>
        <path d="M61.1178 27.9694C61.1178 28.5195 61.0389 29.0545 60.8959 29.5554L60.7794 29.9159C60.7794 29.9197 60.7756 29.9234 60.7756 29.9274L52.479 55.6926C52.4489 55.8026 52.4152 55.9088 52.3738 56.0188C51.5805 58.193 49.5093 59.7452 47.0808 59.7452H19.9208C17.421 59.7452 15.3045 58.1059 14.564 55.8369C14.5489 55.7951 14.5376 55.7496 14.5226 55.7078L6.22202 29.9274C6.18824 29.8326 6.15425 29.7338 6.12809 29.6352C5.9664 29.1115 5.87988 28.5499 5.87988 27.9694C5.87988 26.1099 6.76706 24.4555 8.13541 23.4196C8.21059 23.3589 8.28948 23.302 8.36858 23.2489L30.1193 7.30406C30.1944 7.24709 30.2696 7.19407 30.3448 7.14084C31.247 6.52623 32.3297 6.16943 33.4988 6.16943C34.668 6.16943 35.7506 6.52623 36.6529 7.14084C36.728 7.19407 36.8032 7.24709 36.8784 7.30406L58.633 23.2489L58.9263 23.4652C60.2607 24.505 61.1178 26.1368 61.1178 27.9694Z" fill="url(#paint1_linear_232_66264)"/>
        <path d="M59.9818 28.2656C59.9818 28.7933 59.906 29.3063 59.7693 29.7866L59.6574 30.1323C59.6574 30.1361 59.6537 30.1396 59.6537 30.1431L51.698 54.8494C51.6691 54.9548 51.6368 55.0569 51.5971 55.1623C50.8366 57.2472 48.8503 58.7355 46.5216 58.7355H20.4776C18.0804 58.7355 16.051 57.1636 15.3408 54.9877C15.3264 54.9478 15.3154 54.9039 15.301 54.864L7.3418 30.1431C7.30947 30.0521 7.27692 29.9575 7.25158 29.8631C7.09648 29.3609 7.01367 28.8224 7.01367 28.2656C7.01367 26.4827 7.86439 24.8962 9.1765 23.903C9.2486 23.8448 9.3244 23.7903 9.4 23.7392L30.2569 8.44966C30.329 8.39519 30.4011 8.34425 30.4732 8.2933C31.3383 7.70385 32.3765 7.36182 33.4974 7.36182C34.6186 7.36182 35.6566 7.70385 36.5219 8.2933C36.594 8.34425 36.6661 8.39519 36.7382 8.44966L57.5988 23.7392L57.88 23.9467C59.16 24.9437 59.9818 26.5081 59.9818 28.2656Z" fill="url(#paint2_linear_232_66264)"/>
        <path d="M41.6136 28.0178C41.421 27.8246 41.11 27.8248 40.9178 28.0184L34.0229 34.9615C33.8214 35.1665 33.6668 35.4063 33.6004 35.6169C33.1695 36.9881 32.7831 38.3548 32.3925 39.7506C32.3443 39.9229 32.3606 40.0714 32.4362 40.1481C32.5122 40.2255 32.6607 40.2425 32.8333 40.1945C33.9498 39.8822 35.1288 39.5364 36.4379 39.1378C36.9345 38.9867 37.3535 38.7421 37.683 38.4109L44.456 31.573C44.649 31.3782 44.6484 31.0621 44.455 30.8679L41.6136 28.0178Z" fill="url(#paint3_linear_232_66264)"/>
        <path d="M48.6631 25.148C48.2612 24.6413 47.8097 24.1836 47.3211 23.7877C46.6335 23.2311 45.7037 23.2706 45.0555 23.8826L42.5783 26.4381C42.3874 26.635 42.3911 26.9513 42.5867 27.1434L45.4182 29.9262C45.6108 30.1154 45.9179 30.1144 46.1091 29.9239L47.9949 28.0454L48.0122 28.0281C48.2262 27.815 48.4284 27.6139 48.6039 27.3991C49.1465 26.7359 49.1712 25.7892 48.6631 25.148Z" fill="url(#paint4_linear_232_66264)"/>
        <path d="M38.5049 39.2439C38.0382 39.713 37.4558 40.0558 36.774 40.2633C35.4568 40.6644 34.2693 41.0125 33.1444 41.3273C32.979 41.3737 32.8144 41.3961 32.655 41.3961C32.3901 41.3961 32.1515 41.3073 31.9219 41.2125C31.8043 41.1641 31.5536 41.041 31.3783 40.9378L30.6415 40.5008C30.6135 40.5459 30.6036 40.5642 30.5918 40.5811C30.0934 41.3021 29.0641 41.6419 28.3985 40.8586C27.92 40.2956 27.4504 39.7248 26.9789 39.156C26.7113 38.8331 26.7294 38.4332 27.0176 38.1964C27.3012 37.9635 27.6796 38.0195 27.9431 38.3349C28.1686 38.605 28.3919 38.8771 28.6179 39.1468C28.878 39.4572 29.1401 39.7658 29.4126 40.0885C29.5016 39.9621 29.5699 39.8567 29.6464 39.7575C30.1006 39.1661 30.6468 39.0501 31.2786 39.4073C31.6695 38.0101 32.0568 36.6414 32.4904 35.2612C32.6123 34.8728 32.8638 34.4715 33.1984 34.1309L40.5757 26.7019C40.6502 26.6268 40.7341 26.5671 40.8233 26.5214C40.8235 25.8157 40.8233 25.11 40.8237 24.4043C40.8245 22.9759 40.2265 21.9193 38.9301 21.335C38.5327 21.156 38.0608 21.0741 37.6221 21.0712C34.4118 21.0497 31.2011 21.0562 27.9907 21.0608C26.1228 21.0635 24.7689 22.4353 24.768 24.326C24.7656 30.7771 24.767 35.7999 24.767 42.2511C24.767 43.489 24.7668 44.7272 24.767 45.9652C24.7674 47.7602 25.7049 48.9276 27.4498 49.3079C27.4769 49.314 27.5015 49.3325 27.5272 49.3452C31.0543 49.3452 34.5811 49.3452 38.108 49.3452C38.2717 49.3 38.4365 49.258 38.5993 49.2092C39.87 48.828 40.7701 47.6481 40.8161 46.3047C40.8198 46.1985 40.8212 46.092 40.8212 45.9856C40.8214 42.4825 40.821 40.4079 40.8208 36.9048L38.5049 39.2439ZM30.3109 23.986C30.445 23.8704 30.6468 23.7762 30.8197 23.7739C32.1417 23.7567 33.4639 23.7583 34.7859 23.7681C35.1978 23.7712 35.4667 24.0563 35.4667 24.4364C35.4667 24.8258 35.1834 25.1069 34.7585 25.1127C34.1072 25.1215 33.4556 25.115 32.8041 25.115C32.1431 25.1148 31.4819 25.1188 30.8209 25.1129C30.5164 25.1102 30.2878 24.9697 30.1702 24.6769C30.0655 24.4168 30.1076 24.1613 30.3109 23.986ZM32.786 46.6397C32.0494 46.6343 31.4547 46.0301 31.457 45.2894C31.4594 44.5505 32.0593 43.9479 32.7936 43.9469C33.5314 43.9458 34.1304 44.5415 34.1362 45.2824C34.142 46.0334 33.5335 46.6451 32.786 46.6397Z" fill="url(#paint5_linear_232_66264)"/>
    </g>
    <defs>
        <linearGradient id="paint0_linear_232_66264" x1="9.51897" y1="59.7035" x2="58.7757" y2="14.9886" gradientUnits="userSpaceOnUse">
            <stop stop-color="#00D2FF"/>
            <stop offset="0.6451" stop-color="#2897E2"/>
            <stop offset="1" stop-color="#3A7BD5"/>
        </linearGradient>
        <linearGradient id="paint1_linear_232_66264" x1="5.88001" y1="32.9574" x2="61.1178" y2="32.9574" gradientUnits="userSpaceOnUse">
            <stop stop-color="#E6E6E6"/>
            <stop offset="0.2347" stop-color="#F4F4F4"/>
            <stop offset="0.5219" stop-color="#FCFCFC"/>
            <stop offset="1" stop-color="white"/>
        </linearGradient>
        <linearGradient id="paint2_linear_232_66264" x1="7.01398" y1="33.0486" x2="59.9818" y2="33.0486" gradientUnits="userSpaceOnUse">
            <stop stop-color="white"/>
            <stop offset="0.4256" stop-color="#FCFCFC"/>
            <stop offset="0.7668" stop-color="#F2F2F2"/>
            <stop offset="1" stop-color="#E6E6E6"/>
        </linearGradient>
        <linearGradient id="paint3_linear_232_66264" x1="24.9725" y1="46.4686" x2="42.6743" y2="30.3989" gradientUnits="userSpaceOnUse">
            <stop stop-color="#00D2FF"/>
            <stop offset="0.6451" stop-color="#2897E2"/>
            <stop offset="1" stop-color="#3A7BD5"/>
        </linearGradient>
        <linearGradient id="paint4_linear_232_66264" x1="32.1015" y1="39.3724" x2="44.8253" y2="27.8218" gradientUnits="userSpaceOnUse">
            <stop stop-color="#00D2FF"/>
            <stop offset="0.6451" stop-color="#2897E2"/>
            <stop offset="1" stop-color="#3A7BD5"/>
        </linearGradient>
        <linearGradient id="paint5_linear_232_66264" x1="22.0118" y1="45.1744" x2="47.2405" y2="22.272" gradientUnits="userSpaceOnUse">
            <stop stop-color="#00D2FF"/>
            <stop offset="0.6451" stop-color="#2897E2"/>
            <stop offset="1" stop-color="#3A7BD5"/>
        </linearGradient>
        <clipPath id="clip0_232_66264">
            <rect width="67" height="65" fill="white"/>
        </clipPath>
    </defs>
</svg>
